<svg xmlns="http://www.w3.org/2000/svg" xmlns:xlink="http://www.w3.org/1999/xlink" viewBox="0 0 3840 2160"><defs><style>.cls-1{fill:url(#radial-gradient);}.cls-2{fill:url(#radial-gradient-2);}.cls-3{fill:#fff;}</style><radialGradient id="radial-gradient" cx="1043.71" cy="-1105.55" r="3599.13" gradientUnits="userSpaceOnUse"><stop offset="0.11" stop-color="#e692d0"/><stop offset="0.62" stop-color="#a958cc"/><stop offset="1" stop-color="#6e3bc7"/></radialGradient><radialGradient id="radial-gradient-2" cx="1050.68" cy="-283.36" r="3540.98" xlink:href="#radial-gradient"/></defs><title>Bakground</title><g id="Layer_2" data-name="Layer 2"><g id="Bakground"><rect class="cls-1" x="2.31" width="3837.69" height="2160"/><path class="cls-2" d="M2.31,227.44c31.3,117.85,119,377.69,363.21,548.69C480.06,856.32,595.1,893.23,700,915.48c572,121.41,814.32-199.77,1319.22-162.58C2604,796,2737.3,1260.62,3268.74,1203.48c256.11-27.53,451-159.71,566.71-255.48,1.52,445.81,3,766.19,4.55,1212H2.31C-5.69,1510.66,10.3,876.78,2.31,227.44Z"/><path class="cls-3" d="M0,1941c103.74-39.29,256.57-79,432-51,101,16.11,147.29,44.72,255,75,197.47,55.51,358.61,48.34,501,42,305.27-13.59,485.43-100.79,802.15-136.21,138.44-15.49,235.92-24.37,382.08-16.38,453.27,24.79,694.32,148,1063.74,17.09,186.49-66.09,320.32-165.57,404-239V2160H0Z"/></g></g></svg>