<svg xmlns="http://www.w3.org/2000/svg" viewBox="0 0 296.18 81.75"><defs><style>.cls-1{fill:#fff;}</style></defs><title>Asset 4</title><g id="Layer_2" data-name="Layer 2"><g id="Text"><path class="cls-1" d="M153.31,73.67v7.56H126.64V36.29h9.29V73.67Z"/><path class="cls-1" d="M201.05,58.74a24.83,24.83,0,0,1-1.66,9.14A21.16,21.16,0,0,1,187.45,80a26.23,26.23,0,0,1-18.84,0,21.83,21.83,0,0,1-7.28-4.82,21.37,21.37,0,0,1-4.69-7.28,25.94,25.94,0,0,1,0-18.26,21.38,21.38,0,0,1,4.69-7.26,21.83,21.83,0,0,1,7.28-4.82,26.23,26.23,0,0,1,18.84,0,21.21,21.21,0,0,1,11.94,12.11A24.64,24.64,0,0,1,201.05,58.74Zm-9.51,0a20.06,20.06,0,0,0-.93-6.33,13.52,13.52,0,0,0-2.68-4.77,11.64,11.64,0,0,0-4.25-3,16.07,16.07,0,0,0-11.32,0,11.67,11.67,0,0,0-4.26,3,13.52,13.52,0,0,0-2.68,4.77,20.06,20.06,0,0,0-.93,6.33,20.18,20.18,0,0,0,.93,6.37,13.34,13.34,0,0,0,2.68,4.75,11.51,11.51,0,0,0,4.26,3,15.92,15.92,0,0,0,11.32,0,11.47,11.47,0,0,0,4.25-3,13.34,13.34,0,0,0,2.68-4.75A20.18,20.18,0,0,0,191.54,58.74Z"/><path class="cls-1" d="M229.73,58.34h15.43V76.9a24.25,24.25,0,0,1-7.33,3.67,28.7,28.7,0,0,1-8.22,1.16,27.83,27.83,0,0,1-10-1.72,22.63,22.63,0,0,1-7.68-4.79A21.1,21.1,0,0,1,207,67.94a24,24,0,0,1-1.73-9.2,25,25,0,0,1,1.66-9.26,20.79,20.79,0,0,1,4.72-7.25A21.67,21.67,0,0,1,219,37.49a26.65,26.65,0,0,1,9.74-1.7,28.56,28.56,0,0,1,5.21.45,25,25,0,0,1,4.46,1.24,20.73,20.73,0,0,1,3.74,1.87,21.4,21.4,0,0,1,3.1,2.39l-2.69,4.15A2.55,2.55,0,0,1,241,47.1a3,3,0,0,1-2.17-.5c-.75-.45-1.47-.86-2.19-1.22a17.16,17.16,0,0,0-2.27-1,16.48,16.48,0,0,0-2.64-.62,22.69,22.69,0,0,0-3.28-.21,14.33,14.33,0,0,0-5.67,1.08,12.17,12.17,0,0,0-4.32,3.07,13.65,13.65,0,0,0-2.74,4.77,19,19,0,0,0-1,6.22,19.62,19.62,0,0,0,1,6.65,13.81,13.81,0,0,0,3,4.94,12.78,12.78,0,0,0,4.6,3.07,17.59,17.59,0,0,0,9.94.6,20.21,20.21,0,0,0,3.42-1.22V65.22h-5.08a2,2,0,0,1-1.41-.48,1.61,1.61,0,0,1-.51-1.23Z"/><path class="cls-1" d="M296.18,58.74a24.83,24.83,0,0,1-1.66,9.14,21.2,21.2,0,0,1-4.68,7.28A21.55,21.55,0,0,1,282.58,80a26.23,26.23,0,0,1-18.84,0,21.83,21.83,0,0,1-7.28-4.82,21.37,21.37,0,0,1-4.69-7.28,25.94,25.94,0,0,1,0-18.26,21.38,21.38,0,0,1,4.69-7.26,21.83,21.83,0,0,1,7.28-4.82,26.23,26.23,0,0,1,18.84,0,21.21,21.21,0,0,1,11.94,12.11A24.64,24.64,0,0,1,296.18,58.74Zm-9.51,0a20.06,20.06,0,0,0-.93-6.33,13.37,13.37,0,0,0-2.68-4.77,11.64,11.64,0,0,0-4.25-3,14.59,14.59,0,0,0-5.65-1,14.77,14.77,0,0,0-5.67,1,11.67,11.67,0,0,0-4.26,3,13.52,13.52,0,0,0-2.68,4.77,20.06,20.06,0,0,0-.93,6.33,20.18,20.18,0,0,0,.93,6.37,13.34,13.34,0,0,0,2.68,4.75,11.51,11.51,0,0,0,4.26,3,14.58,14.58,0,0,0,5.67,1,14.41,14.41,0,0,0,5.65-1,11.47,11.47,0,0,0,4.25-3,13.19,13.19,0,0,0,2.68-4.75A20.18,20.18,0,0,0,286.67,58.74Z"/><circle class="cls-1" cx="9.32" cy="72.43" r="9.32" transform="translate(-63.67 70.03) rotate(-80.78)"/><path class="cls-1" d="M95.49,50.21A31.55,31.55,0,0,0,63.94,18.66a32.4,32.4,0,0,0-5.33.45,2.92,2.92,0,0,1-2.4-.66,3,3,0,0,1-1-2.26V16.1a16.1,16.1,0,1,0-21,15.27,3,3,0,0,1,1.89,1.74A3.08,3.08,0,0,1,36,35.68,31.54,31.54,0,1,0,95.49,50.21Z"/></g></g></svg>